<svg xmlns="http://www.w3.org/2000/svg" viewBox="0 0 342.33 223.68"><defs><style>.cls-1{fill:#80c5a4;opacity:0.6;}.cls-2{fill:#29abe2;}.cls-3{fill:none;stroke:#1d4b9f;stroke-linecap:round;stroke-linejoin:round;stroke-width:3px;}.cls-4{fill:#25a599;}.cls-5{fill:#2b50a2;}</style></defs><title>F_kontakt</title><g id="Warstwa_2" data-name="Warstwa 2"><g id="Warstwa_3" data-name="Warstwa 3"><rect class="cls-1" x="76.76" y="67.58" width="221.69" height="80.83" rx="9.24" ry="9.24" transform="translate(375.21 215.98) rotate(-180)"/><path class="cls-1" d="M114,135.31l22.33,9.24L75.54,183Z"/><path class="cls-2" d="M122.75,7.12a1.5,1.5,0,0,0,0-3,1.5,1.5,0,0,0,0,3Z"/><path class="cls-2" d="M256.51.75a.38.38,0,0,0,0-.75.38.38,0,0,0,0,.75Z"/><path class="cls-2" d="M197.5,12.55a.38.38,0,0,0,0-.75.38.38,0,0,0,0,.75Z"/><path class="cls-2" d="M179.14,6.37a.75.75,0,0,0,0-1.5.75.75,0,0,0,0,1.5Z"/><path class="cls-3" d="M340.83,112.84c-.81,1.46-13.12,22.83-35.76,24.13-20.75,1.2-35.22-15.31-40.53-21.37-18.34-20.93-15.18-43.89-20.66-44.14-9-.4-15.3,61.59-29.41,62.07-9.9.33-16.6-29.87-23.84-29-8.9,1.12-6.72,47.92-11.92,48.28-6,.41-13.72-62.09-24.63-62.07-8.81,0-11.05,40.81-24.64,42.07C115.09,134.16,103.05,90,89.71,91.46c-13,1.44-9,44.1-27,49.65-10.6,3.26-28.84-6.25-61.19-45.51"/><path class="cls-4" d="M187.85,205.57a1.5,1.5,0,0,0,0-3,1.5,1.5,0,0,0,0,3Z"/><path class="cls-4" d="M129.27,47.33a1.5,1.5,0,0,0,0-3,1.5,1.5,0,0,0,0,3Z"/><path class="cls-4" d="M211.45,56.2a.75.75,0,0,0,0-1.5.75.75,0,0,0,0,1.5Z"/><path class="cls-4" d="M161.62,187.33a.75.75,0,0,0,0-1.5.75.75,0,0,0,0,1.5Z"/><path class="cls-5" d="M183.47,73.56a1.5,1.5,0,0,0,0-3,1.5,1.5,0,0,0,0,3Z"/><path class="cls-5" d="M190.47,41.34a.75.75,0,0,0,0-1.5.75.75,0,0,0,0,1.5Z"/><path class="cls-5" d="M221.94,189.08a.75.75,0,0,0,0-1.5.75.75,0,0,0,0,1.5Z"/><path class="cls-5" d="M83.81,55.83a.38.38,0,0,0,0-.75.38.38,0,0,0,0,.75Z"/><path class="cls-5" d="M282.26,197.45a.38.38,0,0,0,0-.75.38.38,0,0,0,0,.75Z"/><path class="cls-5" d="M91.68,223.68a.38.38,0,0,0,0-.75.38.38,0,0,0,0,.75Z"/><path class="cls-2" d="M252.1,40.09a.38.38,0,0,0,0-.75.38.38,0,0,0,0,.75Z"/><path class="cls-2" d="M267.84,52.27a.75.75,0,0,0,0-1.5.75.75,0,0,0,0,1.5Z"/><path class="cls-2" d="M239.46,3.17a.75.75,0,0,0,0-1.5.75.75,0,0,0,0,1.5Z"/></g></g></svg>