<svg xmlns="http://www.w3.org/2000/svg" viewBox="0 0 192.13 801.5"><defs><style>.cls-1{opacity:0.4;}.cls-2{fill:#83ffd9;}</style></defs><title>F_kreski_bok_aktualnosci</title><g id="Warstwa_2" data-name="Warstwa 2"><g id="Warstwa_1-2" data-name="Warstwa 1"><g class="cls-1"><ellipse class="cls-2" cx="35.86" cy="7.58" rx="5.76" ry="7.58"/><ellipse class="cls-2" cx="65.96" cy="7.58" rx="5.76" ry="7.58"/><ellipse class="cls-2" cx="96.07" cy="7.58" rx="5.76" ry="7.58"/><ellipse class="cls-2" cx="126.17" cy="7.58" rx="5.76" ry="7.58"/><ellipse class="cls-2" cx="156.27" cy="7.58" rx="5.76" ry="7.58"/><ellipse class="cls-2" cx="186.38" cy="7.58" rx="5.76" ry="7.58"/><ellipse class="cls-2" cx="5.76" cy="7.58" rx="5.76" ry="7.58"/><ellipse class="cls-2" cx="35.86" cy="42.4" rx="5.76" ry="7.58"/><ellipse class="cls-2" cx="65.96" cy="42.4" rx="5.76" ry="7.58"/><ellipse class="cls-2" cx="96.07" cy="42.4" rx="5.76" ry="7.58"/><ellipse class="cls-2" cx="126.17" cy="42.4" rx="5.76" ry="7.58"/><ellipse class="cls-2" cx="156.27" cy="42.4" rx="5.76" ry="7.58"/><ellipse class="cls-2" cx="186.38" cy="42.4" rx="5.76" ry="7.58"/><ellipse class="cls-2" cx="5.76" cy="42.4" rx="5.76" ry="7.58"/><ellipse class="cls-2" cx="35.86" cy="77.23" rx="5.76" ry="7.58"/><ellipse class="cls-2" cx="65.96" cy="77.23" rx="5.76" ry="7.58"/><ellipse class="cls-2" cx="96.07" cy="77.23" rx="5.76" ry="7.58"/><ellipse class="cls-2" cx="126.17" cy="77.23" rx="5.76" ry="7.58"/><ellipse class="cls-2" cx="156.27" cy="77.23" rx="5.76" ry="7.58"/><ellipse class="cls-2" cx="186.38" cy="77.23" rx="5.76" ry="7.58"/><ellipse class="cls-2" cx="5.76" cy="77.23" rx="5.76" ry="7.58"/><ellipse class="cls-2" cx="35.86" cy="110.82" rx="5.76" ry="7.58"/><ellipse class="cls-2" cx="65.96" cy="110.82" rx="5.76" ry="7.58"/><ellipse class="cls-2" cx="96.07" cy="110.82" rx="5.76" ry="7.58"/><ellipse class="cls-2" cx="126.17" cy="110.82" rx="5.76" ry="7.58"/><ellipse class="cls-2" cx="156.27" cy="110.82" rx="5.76" ry="7.58"/><ellipse class="cls-2" cx="186.38" cy="110.82" rx="5.76" ry="7.58"/><ellipse class="cls-2" cx="5.76" cy="110.82" rx="5.76" ry="7.58"/><ellipse class="cls-2" cx="35.86" cy="145.65" rx="5.76" ry="7.58"/><ellipse class="cls-2" cx="65.96" cy="145.65" rx="5.76" ry="7.58"/><ellipse class="cls-2" cx="96.07" cy="145.65" rx="5.76" ry="7.58"/><ellipse class="cls-2" cx="126.17" cy="145.65" rx="5.76" ry="7.58"/><ellipse class="cls-2" cx="156.27" cy="145.65" rx="5.76" ry="7.58"/><ellipse class="cls-2" cx="186.38" cy="145.65" rx="5.76" ry="7.58"/><ellipse class="cls-2" cx="5.76" cy="145.65" rx="5.76" ry="7.58"/><ellipse class="cls-2" cx="35.86" cy="180.48" rx="5.76" ry="7.58"/><ellipse class="cls-2" cx="65.96" cy="180.48" rx="5.76" ry="7.58"/><ellipse class="cls-2" cx="96.07" cy="180.48" rx="5.76" ry="7.58"/><ellipse class="cls-2" cx="126.17" cy="180.48" rx="5.76" ry="7.58"/><ellipse class="cls-2" cx="156.27" cy="180.48" rx="5.76" ry="7.58"/><ellipse class="cls-2" cx="186.38" cy="180.48" rx="5.76" ry="7.58"/><ellipse class="cls-2" cx="5.76" cy="180.48" rx="5.76" ry="7.58"/><ellipse class="cls-2" cx="35.86" cy="211.61" rx="5.76" ry="7.58"/><ellipse class="cls-2" cx="65.96" cy="211.61" rx="5.76" ry="7.58"/><ellipse class="cls-2" cx="96.07" cy="211.61" rx="5.76" ry="7.58"/><ellipse class="cls-2" cx="126.17" cy="211.61" rx="5.76" ry="7.58"/><ellipse class="cls-2" cx="156.27" cy="211.61" rx="5.76" ry="7.58"/><ellipse class="cls-2" cx="186.38" cy="211.61" rx="5.76" ry="7.58"/><ellipse class="cls-2" cx="5.76" cy="211.61" rx="5.76" ry="7.58"/><ellipse class="cls-2" cx="35.86" cy="246.44" rx="5.76" ry="7.58"/><ellipse class="cls-2" cx="65.96" cy="246.44" rx="5.76" ry="7.58"/><ellipse class="cls-2" cx="96.07" cy="246.44" rx="5.76" ry="7.58"/><ellipse class="cls-2" cx="126.17" cy="246.44" rx="5.76" ry="7.58"/><ellipse class="cls-2" cx="156.27" cy="246.44" rx="5.76" ry="7.58"/><ellipse class="cls-2" cx="186.38" cy="246.44" rx="5.76" ry="7.58"/><ellipse class="cls-2" cx="5.76" cy="246.44" rx="5.76" ry="7.58"/><ellipse class="cls-2" cx="35.86" cy="281.27" rx="5.76" ry="7.58"/><ellipse class="cls-2" cx="65.96" cy="281.27" rx="5.76" ry="7.58"/><ellipse class="cls-2" cx="96.07" cy="281.27" rx="5.76" ry="7.58"/><ellipse class="cls-2" cx="126.17" cy="281.27" rx="5.76" ry="7.58"/><ellipse class="cls-2" cx="156.27" cy="281.27" rx="5.76" ry="7.58"/><ellipse class="cls-2" cx="186.38" cy="281.27" rx="5.76" ry="7.58"/><ellipse class="cls-2" cx="5.76" cy="281.27" rx="5.76" ry="7.58"/><ellipse class="cls-2" cx="35.86" cy="314.86" rx="5.76" ry="7.58"/><ellipse class="cls-2" cx="65.96" cy="314.86" rx="5.76" ry="7.58"/><ellipse class="cls-2" cx="96.07" cy="314.86" rx="5.76" ry="7.58"/><ellipse class="cls-2" cx="126.17" cy="314.86" rx="5.76" ry="7.58"/><ellipse class="cls-2" cx="156.27" cy="314.86" rx="5.76" ry="7.58"/><ellipse class="cls-2" cx="186.38" cy="314.86" rx="5.76" ry="7.58"/><ellipse class="cls-2" cx="5.76" cy="314.86" rx="5.76" ry="7.58"/><ellipse class="cls-2" cx="35.86" cy="349.68" rx="5.76" ry="7.58"/><ellipse class="cls-2" cx="65.96" cy="349.68" rx="5.76" ry="7.58"/><ellipse class="cls-2" cx="96.07" cy="349.68" rx="5.76" ry="7.58"/><ellipse class="cls-2" cx="126.17" cy="349.68" rx="5.76" ry="7.58"/><ellipse class="cls-2" cx="156.27" cy="349.68" rx="5.76" ry="7.58"/><ellipse class="cls-2" cx="186.38" cy="349.68" rx="5.76" ry="7.58"/><ellipse class="cls-2" cx="5.76" cy="349.68" rx="5.76" ry="7.58"/><ellipse class="cls-2" cx="35.86" cy="384.51" rx="5.76" ry="7.58"/><ellipse class="cls-2" cx="65.96" cy="384.51" rx="5.76" ry="7.58"/><ellipse class="cls-2" cx="96.07" cy="384.51" rx="5.76" ry="7.58"/><ellipse class="cls-2" cx="126.17" cy="384.51" rx="5.76" ry="7.58"/><ellipse class="cls-2" cx="156.27" cy="384.51" rx="5.76" ry="7.58"/><ellipse class="cls-2" cx="186.38" cy="384.51" rx="5.76" ry="7.58"/><ellipse class="cls-2" cx="5.76" cy="384.51" rx="5.76" ry="7.58"/><ellipse class="cls-2" cx="35.86" cy="416.99" rx="5.76" ry="7.58"/><ellipse class="cls-2" cx="65.96" cy="416.99" rx="5.76" ry="7.58"/><ellipse class="cls-2" cx="96.07" cy="416.99" rx="5.76" ry="7.58"/><ellipse class="cls-2" cx="126.17" cy="416.99" rx="5.76" ry="7.58"/><ellipse class="cls-2" cx="156.27" cy="416.99" rx="5.76" ry="7.58"/><ellipse class="cls-2" cx="186.38" cy="416.99" rx="5.76" ry="7.58"/><ellipse class="cls-2" cx="5.76" cy="416.99" rx="5.76" ry="7.58"/><ellipse class="cls-2" cx="35.86" cy="451.82" rx="5.76" ry="7.58"/><ellipse class="cls-2" cx="65.96" cy="451.82" rx="5.76" ry="7.58"/><ellipse class="cls-2" cx="96.07" cy="451.82" rx="5.76" ry="7.58"/><ellipse class="cls-2" cx="126.17" cy="451.82" rx="5.76" ry="7.58"/><ellipse class="cls-2" cx="156.27" cy="451.82" rx="5.76" ry="7.58"/><ellipse class="cls-2" cx="186.38" cy="451.82" rx="5.76" ry="7.58"/><ellipse class="cls-2" cx="5.76" cy="451.82" rx="5.76" ry="7.58"/><ellipse class="cls-2" cx="35.86" cy="486.64" rx="5.76" ry="7.58"/><ellipse class="cls-2" cx="65.96" cy="486.64" rx="5.76" ry="7.58"/><ellipse class="cls-2" cx="96.07" cy="486.64" rx="5.76" ry="7.58"/><ellipse class="cls-2" cx="126.17" cy="486.64" rx="5.76" ry="7.58"/><ellipse class="cls-2" cx="156.27" cy="486.64" rx="5.76" ry="7.58"/><ellipse class="cls-2" cx="186.38" cy="486.64" rx="5.76" ry="7.58"/><ellipse class="cls-2" cx="5.76" cy="486.64" rx="5.76" ry="7.58"/><ellipse class="cls-2" cx="35.86" cy="520.23" rx="5.76" ry="7.58"/><ellipse class="cls-2" cx="65.96" cy="520.23" rx="5.76" ry="7.58"/><ellipse class="cls-2" cx="96.07" cy="520.23" rx="5.76" ry="7.58"/><ellipse class="cls-2" cx="126.17" cy="520.23" rx="5.76" ry="7.58"/><ellipse class="cls-2" cx="156.27" cy="520.23" rx="5.76" ry="7.58"/><ellipse class="cls-2" cx="186.38" cy="520.23" rx="5.76" ry="7.58"/><ellipse class="cls-2" cx="5.76" cy="520.23" rx="5.76" ry="7.58"/><ellipse class="cls-2" cx="35.86" cy="555.06" rx="5.76" ry="7.58"/><ellipse class="cls-2" cx="65.96" cy="555.06" rx="5.76" ry="7.58"/><ellipse class="cls-2" cx="96.07" cy="555.06" rx="5.76" ry="7.58"/><ellipse class="cls-2" cx="126.17" cy="555.06" rx="5.76" ry="7.58"/><ellipse class="cls-2" cx="156.27" cy="555.06" rx="5.76" ry="7.58"/><ellipse class="cls-2" cx="186.38" cy="555.06" rx="5.76" ry="7.58"/><ellipse class="cls-2" cx="5.76" cy="555.06" rx="5.76" ry="7.58"/><ellipse class="cls-2" cx="35.86" cy="589.89" rx="5.76" ry="7.58"/><ellipse class="cls-2" cx="65.96" cy="589.89" rx="5.76" ry="7.58"/><ellipse class="cls-2" cx="96.07" cy="589.89" rx="5.76" ry="7.58"/><ellipse class="cls-2" cx="126.17" cy="589.89" rx="5.76" ry="7.58"/><ellipse class="cls-2" cx="156.27" cy="589.89" rx="5.76" ry="7.58"/><ellipse class="cls-2" cx="186.38" cy="589.89" rx="5.76" ry="7.58"/><ellipse class="cls-2" cx="5.76" cy="589.89" rx="5.76" ry="7.58"/><ellipse class="cls-2" cx="35.86" cy="621.02" rx="5.76" ry="7.58"/><ellipse class="cls-2" cx="65.96" cy="621.02" rx="5.76" ry="7.58"/><ellipse class="cls-2" cx="96.07" cy="621.02" rx="5.76" ry="7.58"/><ellipse class="cls-2" cx="126.17" cy="621.02" rx="5.76" ry="7.58"/><ellipse class="cls-2" cx="156.27" cy="621.02" rx="5.76" ry="7.58"/><ellipse class="cls-2" cx="186.38" cy="621.02" rx="5.76" ry="7.58"/><ellipse class="cls-2" cx="5.76" cy="621.02" rx="5.76" ry="7.58"/><ellipse class="cls-2" cx="35.86" cy="655.85" rx="5.76" ry="7.58"/><ellipse class="cls-2" cx="65.96" cy="655.85" rx="5.76" ry="7.58"/><ellipse class="cls-2" cx="96.07" cy="655.85" rx="5.76" ry="7.58"/><ellipse class="cls-2" cx="126.17" cy="655.85" rx="5.76" ry="7.58"/><ellipse class="cls-2" cx="156.27" cy="655.85" rx="5.76" ry="7.58"/><ellipse class="cls-2" cx="186.38" cy="655.85" rx="5.76" ry="7.58"/><ellipse class="cls-2" cx="5.76" cy="655.85" rx="5.76" ry="7.58"/><ellipse class="cls-2" cx="35.86" cy="690.68" rx="5.76" ry="7.58"/><ellipse class="cls-2" cx="65.96" cy="690.68" rx="5.76" ry="7.58"/><ellipse class="cls-2" cx="96.07" cy="690.68" rx="5.76" ry="7.58"/><ellipse class="cls-2" cx="126.17" cy="690.68" rx="5.76" ry="7.58"/><ellipse class="cls-2" cx="156.27" cy="690.68" rx="5.76" ry="7.58"/><ellipse class="cls-2" cx="186.38" cy="690.68" rx="5.76" ry="7.58"/><ellipse class="cls-2" cx="5.76" cy="690.68" rx="5.76" ry="7.58"/><ellipse class="cls-2" cx="35.86" cy="724.27" rx="5.76" ry="7.58"/><ellipse class="cls-2" cx="65.96" cy="724.27" rx="5.76" ry="7.58"/><ellipse class="cls-2" cx="96.07" cy="724.27" rx="5.76" ry="7.58"/><ellipse class="cls-2" cx="126.17" cy="724.27" rx="5.76" ry="7.58"/><ellipse class="cls-2" cx="156.27" cy="724.27" rx="5.76" ry="7.58"/><ellipse class="cls-2" cx="186.38" cy="724.27" rx="5.76" ry="7.58"/><ellipse class="cls-2" cx="5.76" cy="724.27" rx="5.76" ry="7.58"/><ellipse class="cls-2" cx="35.86" cy="759.1" rx="5.76" ry="7.58"/><ellipse class="cls-2" cx="65.96" cy="759.1" rx="5.76" ry="7.58"/><ellipse class="cls-2" cx="96.07" cy="759.1" rx="5.76" ry="7.58"/><ellipse class="cls-2" cx="126.17" cy="759.1" rx="5.76" ry="7.58"/><ellipse class="cls-2" cx="156.27" cy="759.1" rx="5.76" ry="7.58"/><ellipse class="cls-2" cx="186.38" cy="759.1" rx="5.76" ry="7.58"/><ellipse class="cls-2" cx="5.76" cy="759.1" rx="5.76" ry="7.58"/><ellipse class="cls-2" cx="35.86" cy="793.92" rx="5.76" ry="7.58"/><ellipse class="cls-2" cx="65.96" cy="793.92" rx="5.76" ry="7.58"/><ellipse class="cls-2" cx="96.07" cy="793.92" rx="5.76" ry="7.58"/><ellipse class="cls-2" cx="126.17" cy="793.92" rx="5.76" ry="7.58"/><ellipse class="cls-2" cx="156.27" cy="793.92" rx="5.76" ry="7.58"/><ellipse class="cls-2" cx="186.38" cy="793.92" rx="5.76" ry="7.58"/><ellipse class="cls-2" cx="5.76" cy="793.92" rx="5.76" ry="7.58"/></g></g></g></svg>