<svg xmlns="http://www.w3.org/2000/svg" viewBox="0 0 131.09 116.61"><defs><style>.cls-1{opacity:0.3;}.cls-2{fill:#1d4b9f;}</style></defs><title>cytat</title><g id="Warstwa_2" data-name="Warstwa 2"><g id="Warstwa_1-2" data-name="Warstwa 1"><g class="cls-1"><path class="cls-2" d="M.23,116.58c0-6.31-.68-12.71.31-18.83C1,95,4.37,92.1,7.13,90.49,19.9,83.06,25.49,72,23.27,56.18H.9V0H52.54c0,5.74,0,11.59,0,17.45,0,14.75.38,29.5-.13,44.23C51.41,90.52,28.07,115.24.23,116.58Z"/><path class="cls-2" d="M78.68,116.61c0-6.34-.45-12.7.23-18.94.24-2.27,2.7-5.17,4.9-6.23,14.3-6.91,18.81-18.92,19-34.9H79.31V0H131V17.44c0,14.42.35,28.84-.09,43.25C130,90.24,106.84,115.15,78.68,116.61Z"/></g></g></g></svg>