<svg xmlns="http://www.w3.org/2000/svg" viewBox="0 0 114.57 101.92"><defs><style>.cls-1{fill:#fff;}</style></defs><title>quotes_100%</title><g id="Warstwa_2" data-name="Warstwa 2"><g id="Warstwa_1-2" data-name="Warstwa 1"><path class="cls-1" d="M.2,101.89c0-5.52-.6-11.11.27-16.46C.86,83,3.82,80.5,6.23,79.09c11.16-6.5,16.05-16.18,14.11-30H.79V0H45.92c0,5,0,10.13,0,15.25,0,12.89.34,25.79-.11,38.66C44.93,79.12,24.53,100.72.2,101.89Z"/><path class="cls-1" d="M68.76,101.92c0-5.54-.38-11.1.21-16.55.21-2,2.36-4.53,4.28-5.45,12.49-6,16.44-16.54,16.61-30.5H69.32V0h45.14V15.25c0,12.59.3,25.2-.08,37.79C113.59,78.87,93.38,100.64,68.76,101.92Z"/></g></g></svg>