<svg xmlns="http://www.w3.org/2000/svg" viewBox="0 0 281.86 142.76"><defs><style>.cls-1{fill:none;stroke:#83ffd9;stroke-linecap:round;stroke-linejoin:round;stroke-width:8px;}</style></defs><title>F_mentorzy</title><g id="Warstwa_2" data-name="Warstwa 2"><g id="Warstwa_3" data-name="Warstwa 3"><path class="cls-1" d="M94.43,20.57A51.16,51.16,0,0,0,68.07,5.1C50.22,1.17,36.3,8.85,32.23,11.18c-5.9,3.37-22.14,14.15-26.89,35.9C2.09,62,4.56,80.4,14.83,91.82c5.91,6.56,10.11,6,14.76,12.7,7.19,10.32,5.91,24.14,3.69,34.24"/><path class="cls-1" d="M107.84,47.75a35.77,35.77,0,0,0,0,4.67C109,68.23,121,75.47,118.93,81c-1,2.53-5,4.87-17.5,4.67q.28,13.41.58,26.83a2.88,2.88,0,0,1,0,2.34c-1.93,3.22-13-3.09-18.08.58-2.27,1.64-4.05,5.79-1.75,16.92"/><path class="cls-1" d="M187.43,20.57A51.16,51.16,0,0,1,213.79,5.1c17.85-3.93,31.77,3.75,35.84,6.08,5.9,3.37,22.14,14.15,26.89,35.9C279.77,62,277.3,80.4,267,91.82c-5.91,6.56-10.11,6-14.76,12.7-7.19,10.32-5.91,24.14-3.69,34.24"/><path class="cls-1" d="M174,47.75a35.77,35.77,0,0,1,0,4.67c-1.13,15.81-13.2,23-11.09,28.59,1,2.53,5,4.87,17.5,4.67q-.28,13.41-.58,26.83a2.88,2.88,0,0,0,0,2.34c1.93,3.22,13-3.09,18.08.58,2.27,1.64,4,5.79,1.75,16.92"/><path class="cls-1" d="M50.09,41.34c2.56-4.79,6.59-10.4,12.25-11.09,7.22-.87,11.13,7,19.84,9.92,10.93,3.68,14.53-6.79,30.33-7.58,13.15-.66,13.82,5.75,28.59,5.83,15.64.09,16.91-7.09,29.75-5.83,14.43,1.4,18.16,11,29.75,9.91,8.47-.77,14.83-6.63,18.67-11.08"/></g></g></svg>