<svg xmlns="http://www.w3.org/2000/svg" viewBox="0 0 126.93 13.06"><defs><style>.cls-1{fill:#fff;}</style></defs><title>logo_white_mobile</title><g id="Warstwa_2" data-name="Warstwa 2"><g id="Warstwa_1-2" data-name="Warstwa 1"><path class="cls-1" d="M9.5,11.31c-1.83,0-3.65,0-5.48,0A3.79,3.79,0,0,1,0,7.46,33.27,33.27,0,0,1,.05,4,3.73,3.73,0,0,1,3.77.33C7.61.27,11.46.35,15.3.3c1,0,.91.52.92,1.18s.05,1.28-1,1.27c-3.41-.06-6.82,0-10.23,0a6.11,6.11,0,0,0-1.71.2,1.16,1.16,0,0,0-.83,1.35c.12.62.72.31,1.09.31,3.56,0,7.12.06,10.67,0,1,0,1.27.25,1.29,1.26S15,7.05,14.14,7c-3.51,0-7,0-10.53,0-.4,0-1.07-.35-1.17.39a1.23,1.23,0,0,0,.89,1.33,4.1,4.1,0,0,0,1.27.17c3.46,0,6.92.05,10.38,0,1,0,1.24.31,1.27,1.29s-.42,1.14-1.27,1.12C13.15,11.27,11.33,11.31,9.5,11.31Z"/><path class="cls-1" d="M124.53,3.72c-2.16,2.5-4,4.68-5.94,6.85-1.33,1.51-2,1.48-3.33-.09-1.85-2.13-3.7-4.27-5.84-6.76,0,2.36,0,4.34,0,6.31,0,1-.17,1.32-1.24,1.32S106.93,11,107,10c.07-2.64,0-5.28,0-7.93a1.86,1.86,0,0,1,1.1-2c.91-.36,1.54.16,2.11.83,2,2.3,4,4.56,5.89,6.89.66.81,1,1,1.78,0,1.93-2.39,4-4.67,6-7a1.71,1.71,0,0,1,2-.78,1.68,1.68,0,0,1,1.08,1.83c0,2.84-.06,5.68,0,8.51,0,1.06-.56.87-1.16.87s-1.32.17-1.27-1C124.6,8.27,124.53,6.17,124.53,3.72Z"/><path class="cls-1" d="M81.45,8.53,86,11.26c-2.59.06-4.73.36-6.67-1.16A39.82,39.82,0,0,0,75,7.49c-.37-.22-.79-.45-.68-1s.61-.68,1.11-.68c2.12,0,4.23,0,6.34,0,1.1,0,2-.26,2-1.49s-.92-1.63-2.06-1.62c-2.74,0-5.48,0-8.22,0-.93,0-1.13.33-1.11,1.18,0,2.11-.06,4.23,0,6.34.05,1.1-.45,1.13-1.27,1.12s-1.25,0-1.22-1q.1-4.45,0-8.93C70,.36,70.44.3,71.21.3c3.56,0,7.11,0,10.67,0,2.62,0,4.34,1.58,4.35,3.94s-1.59,3.87-4.17,4h-.54Z"/><path class="cls-1" d="M25.15,8.92c-.31.45-.45.64-.57.84-1,1.58-1.64,1.86-3.42,1.45A5.66,5.66,0,0,1,17,5.52,5.43,5.43,0,0,1,22.05.35c3-.09,6-.1,8.94,0a5.43,5.43,0,0,1,5.08,5.46,5.43,5.43,0,0,1-5.2,5.48c-1.25.05-2.45-.12-3.15,1.4-.27.58-1.4.37-2,.11s-.14-.94,0-1.39A3.7,3.7,0,0,1,29.18,9c.58,0,1.16,0,1.73,0a3,3,0,0,0,2.73-3.18,2.91,2.91,0,0,0-2.78-3c-2.93-.09-5.86-.09-8.79,0a2.9,2.9,0,0,0-2.69,3A3,3,0,0,0,22.2,8.91C23.1,9,24,8.92,25.15,8.92Z"/><path class="cls-1" d="M44.49,11.31c-1.25,0-2.5,0-3.75,0A3.87,3.87,0,0,1,36.8,7.52c-.07-2.11,0-4.23,0-6.34,0-1,.58-.89,1.21-.89s1.24-.16,1.2.87c-.07,1.87,0,3.75,0,5.63,0,1.65.5,2.13,2.16,2.15,2.21,0,4.42,0,6.63,0,1.26,0,1.89-.58,1.89-1.82,0-1.93.06-3.85,0-5.77,0-1,.35-1.12,1.18-1.1s1.37,0,1.31,1.13c-.09,1.92,0,3.85,0,5.77a3.94,3.94,0,0,1-4.18,4.15C46.89,11.33,45.69,11.31,44.49,11.31Z"/><path class="cls-1" d="M98.09,11.31c-1.3,0-2.6,0-3.89,0a3.78,3.78,0,0,1-3.75-3.64c-.08-2.16,0-4.32,0-6.48,0-1,.59-.89,1.21-.89s1.24-.12,1.21.89c-.06,1.92,0,3.85,0,5.77,0,1.49.5,2,2,2q3.31,0,6.63,0c1.52,0,2-.48,2-2,0-1.87.08-3.75,0-5.62-.06-1.16.59-1,1.34-1.09.93-.08,1.13.29,1.11,1.15-.06,1.92,0,3.84,0,5.76a3.86,3.86,0,0,1-4.14,4.14Z"/><path class="cls-1" d="M89.17,5.87c0,1.53,0,3.07,0,4.6,0,1-.65.85-1.24.84s-1.24.21-1.22-.86c.06-3.06,0-6.13,0-9.19,0-1.1.65-.92,1.31-1s1.19,0,1.15,1c-.07,1.53,0,3.06,0,4.6Z"/><path class="cls-1" d="M68.83,4.21A3.82,3.82,0,0,0,64.77.28c-2.35,0-4.71,0-7.06,0-2.74,0-4.26,1.53-4.29,4.29,0,1.83,0,3.66,0,5.48,0,1,.18,1.3,1.23,1.31s1.32-.48,1.17-1.37c-.19-1.11.29-1.41,1.35-1.34,1.29.09,2.59,0,3.89,0a36.06,36.06,0,0,0,3.75,0c1.38-.14,2,.29,1.7,1.7-.2,1.1.56,1,1.24,1s1.19.1,1.15-.91C68.79,8.35,68.88,6.28,68.83,4.21ZM66.49,5.44c0,1.3-1,.75-1.58.79-1.29.08-2.58,0-3.88,0s-2.49,0-3.73,0c-.54,0-1.48.51-1.5-.69s-.3-2.65,1.26-2.78a55.18,55.18,0,0,1,8,0C66.66,2.85,66.49,4.29,66.49,5.44Z"/></g></g></svg>