<svg xmlns="http://www.w3.org/2000/svg" viewBox="0 0 106.01 65.17"><defs><style>.cls-1,.cls-3{opacity:0.2;}.cls-2,.cls-3{fill:none;stroke:#83ffd9;stroke-linecap:round;stroke-linejoin:round;stroke-width:6px;}</style></defs><title>mobile_face_left</title><g id="Warstwa_2" data-name="Warstwa 2"><g id="Warstwa_1-2" data-name="Warstwa 1"><g class="cls-1"><path class="cls-2" d="M63.31,10.27A22.45,22.45,0,0,1,74.88,3.48,22.14,22.14,0,0,1,90.62,6.15a24.4,24.4,0,0,1,11.8,15.77c1.43,6.53.35,14.63-4.16,19.64-2.6,2.88-4.44,2.65-6.48,5.58-3.16,4.53-2.6,10.6-1.62,15"/><path class="cls-2" d="M57.42,22.21a15.31,15.31,0,0,1,0,2.05c-.5,6.94-5.8,10.12-4.87,12.55.42,1.12,2.18,2.14,7.68,2q-.12,5.89-.25,11.79a1.21,1.21,0,0,0,0,1c.84,1.42,5.71-1.35,7.94.26,1,.72,1.77,2.54.77,7.43"/></g><path class="cls-3" d="M3,19.39c1.13-2.1,2.9-4.56,5.38-4.86,3.17-.39,4.89,3.07,8.71,4.35,4.8,1.62,6.38-3,13.32-3.33,5.77-.29,6.07,2.53,12.55,2.56,6.87,0,7.43-3.11,13.07-2.56,6.33.62,8,4.82,13.06,4.36,3.72-.34,6.51-2.92,8.2-4.87"/></g></g></svg>